<svg xmlns="http://www.w3.org/2000/svg" viewBox="0 0 780 980" font-family="'SF Mono', 'Fira Code', 'Cascadia Code', monospace">
  <defs>
    <marker id="arr" viewBox="0 0 10 10" refX="9" refY="5" markerWidth="5" markerHeight="5" orient="auto-start-reverse">
      <path d="M0 0L10 5L0 10z" fill="#484f58"/>
    </marker>
    <marker id="arr-b" viewBox="0 0 10 10" refX="9" refY="5" markerWidth="5" markerHeight="5" orient="auto-start-reverse">
      <path d="M0 0L10 5L0 10z" fill="#58a6ff"/>
    </marker>
    <marker id="arr-p" viewBox="0 0 10 10" refX="9" refY="5" markerWidth="5" markerHeight="5" orient="auto-start-reverse">
      <path d="M0 0L10 5L0 10z" fill="#d2a8ff"/>
    </marker>
    <linearGradient id="tsg" x1="0" y1="0" x2="0" y2="1">
      <stop offset="0%" stop-color="#58a6ff" stop-opacity="0.12"/>
      <stop offset="100%" stop-color="#58a6ff" stop-opacity="0.03"/>
    </linearGradient>
  </defs>

  <style>
    text { font-size: 11.5px; fill: #c9d1d9; }
    .t { font-size: 12px; font-weight: bold; fill: #e6edf3; }
    .sub { font-size: 10px; fill: #7d8590; }
    .port { font-size: 10px; fill: #58a6ff; }
    .nt { font-size: 15px; font-weight: bold; fill: #e6edf3; }
    .tsl { font-size: 11px; font-weight: bold; fill: #58a6ff; }
    .stack { font-size: 9px; fill: #484f58; text-transform: uppercase; letter-spacing: 1px; }
  </style>

  <!-- background -->
  <rect width="780" height="980" rx="10" fill="#0d1117"/>

  <!-- Internet -->
  <text x="390" y="24" text-anchor="middle" fill="#7d8590" font-size="12">Internet</text>
  <line x1="390" y1="30" x2="390" y2="52" stroke="#484f58" stroke-width="1.5" marker-end="url(#arr)"/>

  <!-- ======================== JUUL ======================== -->
  <rect x="20" y="55" width="740" height="370" rx="8" fill="#161b22" stroke="#30363d" stroke-width="1"/>
  <text x="40" y="80" class="nt">juul</text>
  <text x="82" y="80" class="sub" font-size="11">DigitalOcean VPS</text>

  <!-- STACK: networking -->
  <rect x="35" y="90" width="360" height="90" rx="5" fill="none" stroke="#21262d" stroke-width="1"/>
  <text x="48" y="104" class="stack">networking</text>

  <!-- juul-docker Tailscale container -->
  <rect x="45" y="108" width="340" height="62" rx="5" fill="url(#tsg)" stroke="#58a6ff" stroke-width="0.8" stroke-dasharray="4 2"/>
  <text x="58" y="126" class="tsl">juul-docker</text>
  <text x="148" y="126" class="sub">Tailscale container</text>

  <rect x="58" y="134" width="94" height="28" rx="3" fill="#1c2128" stroke="#30363d"/>
  <text x="105" y="153" text-anchor="middle" class="t">Traefik</text>

  <rect x="164" y="134" width="210" height="28" rx="3" fill="#1c2128" stroke="#58a6ff" stroke-width="0.7"/>
  <text x="269" y="148" text-anchor="middle" class="port">TCP :3100 --> Loki</text>
  <text x="269" y="158" text-anchor="middle" class="sub">log ingestion from cherryblossom</text>

  <!-- STACK: monitoring -->
  <rect x="35" y="190" width="520" height="90" rx="5" fill="none" stroke="#21262d" stroke-width="1"/>
  <text x="48" y="204" class="stack">monitoring</text>

  <rect x="45" y="210" width="160" height="32" rx="3" fill="#1c2128" stroke="#30363d"/>
  <text x="125" y="231" text-anchor="middle" class="t">VictoriaMetrics</text>

  <rect x="215" y="210" width="100" height="32" rx="3" fill="#1c2128" stroke="#30363d"/>
  <text x="265" y="231" text-anchor="middle" class="t">Grafana</text>

  <rect x="325" y="210" width="100" height="32" rx="3" fill="#1c2128" stroke="#30363d"/>
  <text x="375" y="231" text-anchor="middle" class="t">node-exp.</text>

  <rect x="435" y="210" width="110" height="32" rx="3" fill="#1c2128" stroke="#30363d"/>
  <text x="490" y="231" text-anchor="middle" class="t">cAdvisor</text>

  <rect x="45" y="248" width="160" height="24" rx="3" fill="#1c2128" stroke="#30363d"/>
  <text x="125" y="265" text-anchor="middle" class="t">tailscale-exporter</text>

  <!-- STACK: logging -->
  <rect x="35" y="290" width="250" height="50" rx="5" fill="none" stroke="#21262d" stroke-width="1"/>
  <text x="48" y="304" class="stack">logging</text>

  <rect x="45" y="310" width="100" height="24" rx="3" fill="#1c2128" stroke="#30363d"/>
  <text x="95" y="327" text-anchor="middle" class="t">Loki</text>

  <rect x="155" y="310" width="120" height="24" rx="3" fill="#1c2128" stroke="#30363d"/>
  <text x="215" y="327" text-anchor="middle" class="t">Promtail</text>

  <!-- STACK: ci -->
  <rect x="295" y="290" width="260" height="50" rx="5" fill="none" stroke="#21262d" stroke-width="1"/>
  <text x="308" y="304" class="stack">ci</text>

  <rect x="305" y="310" width="110" height="24" rx="3" fill="#1c2128" stroke="#30363d"/>
  <text x="360" y="327" text-anchor="middle" class="t">Jenkins</text>

  <rect x="425" y="310" width="120" height="24" rx="3" fill="#1c2128" stroke="#30363d"/>
  <text x="485" y="327" text-anchor="middle" class="t">OTel Collector</text>

  <!-- Legend -->
  <rect x="570" y="90" width="180" height="104" rx="5" fill="#1c2128" stroke="#30363d"/>
  <text x="586" y="109" class="t" font-size="11">Legend</text>
  <line x1="586" y1="122" x2="614" y2="122" stroke="#58a6ff" stroke-width="2" stroke-dasharray="5 3"/>
  <text x="620" y="126" class="sub">Tailscale tunnel</text>
  <line x1="586" y1="140" x2="614" y2="140" stroke="#3fb950" stroke-width="1.5" stroke-dasharray="3 2"/>
  <text x="620" y="144" class="sub">Logs / Metrics flow</text>
  <line x1="586" y1="156" x2="614" y2="156" stroke="#d2a8ff" stroke-width="1.5" stroke-dasharray="3 2"/>
  <text x="620" y="160" class="sub">Reverse proxy traffic</text>
  <line x1="586" y1="172" x2="614" y2="172" stroke="#f0883e" stroke-width="1.5" stroke-dasharray="4 2"/>
  <text x="620" y="176" class="sub">Mullvad VPN tunnel</text>
  <rect x="586" y="182" width="24" height="8" rx="2" fill="none" stroke="#58a6ff" stroke-width="0.7" stroke-dasharray="3 1.5"/>
  <text x="620" y="190" class="sub">TS_SERVE_CONFIG</text>

  <text x="40" y="396" class="sub">Host Tailscale daemon (SSH, management)</text>

  <!-- ======================== TUNNEL ======================== -->
  <rect x="160" y="435" width="460" height="30" rx="15" fill="#58a6ff" fill-opacity="0.07" stroke="#58a6ff" stroke-width="0.8" stroke-dasharray="6 3"/>
  <text x="390" y="454" text-anchor="middle" class="tsl" font-size="12">Tailscale WireGuard tunnel</text>

  <line x1="340" y1="425" x2="340" y2="437" stroke="#58a6ff" stroke-width="1.8" stroke-dasharray="4 2"/>
  <line x1="340" y1="465" x2="340" y2="480" stroke="#58a6ff" stroke-width="1.8" stroke-dasharray="4 2" marker-end="url(#arr-b)"/>
  <line x1="440" y1="480" x2="440" y2="465" stroke="#58a6ff" stroke-width="1.8" stroke-dasharray="4 2" marker-end="url(#arr-b)"/>
  <line x1="440" y1="437" x2="440" y2="425" stroke="#58a6ff" stroke-width="1.8" stroke-dasharray="4 2"/>

  <text x="322" y="422" text-anchor="end" fill="#3fb950" class="sub" font-size="9">metrics</text>
  <text x="458" y="422" fill="#3fb950" class="sub" font-size="9">logs</text>

  <!-- Reverse proxy: Traefik -> tunnel -> Jellyfin -->
  <path d="M 105 162 L 105 400 Q 105 415 120 420 L 155 437" stroke="#d2a8ff" stroke-width="1.5" fill="none" stroke-dasharray="3 2"/>
  <path d="M 155 465 L 125 678" stroke="#d2a8ff" stroke-width="1.5" fill="none" stroke-dasharray="3 2" marker-end="url(#arr-p)"/>
  <text x="68" y="395" fill="#d2a8ff" class="sub" font-size="9">jelly.</text>
  <text x="68" y="405" fill="#d2a8ff" class="sub" font-size="9">khayyam.me</text>

  <!-- Reverse proxy: Traefik -> tunnel -> Transmission -->
  <path d="M 130 162 L 130 395 Q 130 410 150 415 L 545 437" stroke="#d2a8ff" stroke-width="1.5" fill="none" stroke-dasharray="3 2"/>
  <path d="M 545 465 L 545 678" stroke="#d2a8ff" stroke-width="1.5" fill="none" stroke-dasharray="3 2" marker-end="url(#arr-p)"/>
  <text x="600" y="420" fill="#d2a8ff" class="sub" font-size="9">transmission.khayyam.me</text>

  <!-- ======================== CHERRYBLOSSOM ======================== -->
  <rect x="20" y="485" width="740" height="475" rx="8" fill="#161b22" stroke="#30363d" stroke-width="1"/>
  <text x="40" y="510" class="nt">cherryblossom</text>
  <text x="185" y="510" class="sub" font-size="11">on-prem · Arch Linux · NVIDIA GPU</text>

  <!-- STACK: infra -->
  <rect x="35" y="520" width="710" height="126" rx="5" fill="none" stroke="#21262d" stroke-width="1"/>
  <text x="48" y="534" class="stack">infra</text>

  <!-- cherryblossom-docker Tailscale container -->
  <rect x="45" y="540" width="690" height="96" rx="5" fill="url(#tsg)" stroke="#58a6ff" stroke-width="0.8" stroke-dasharray="4 2"/>
  <text x="58" y="558" class="tsl">cherryblossom-docker</text>
  <text x="224" y="558" class="sub">Tailscale container · TS_SERVE_CONFIG</text>

  <rect x="58" y="566" width="210" height="24" rx="3" fill="#1c2128" stroke="#58a6ff" stroke-width="0.7"/>
  <text x="163" y="582" text-anchor="middle" class="port">:9100 --> node-exporter</text>

  <rect x="280" y="566" width="210" height="24" rx="3" fill="#1c2128" stroke="#58a6ff" stroke-width="0.7"/>
  <text x="385" y="582" text-anchor="middle" class="port">:9101 --> cAdvisor</text>

  <rect x="502" y="566" width="222" height="24" rx="3" fill="#1c2128" stroke="#58a6ff" stroke-width="0.7"/>
  <text x="613" y="582" text-anchor="middle" class="port">:9594 --> jellyfin-exporter</text>

  <rect x="58" y="596" width="210" height="24" rx="3" fill="#1c2128" stroke="#58a6ff" stroke-width="0.7"/>
  <text x="163" y="612" text-anchor="middle" class="port">:9901 --> envoy</text>

  <rect x="280" y="596" width="210" height="24" rx="3" fill="#1c2128" stroke="#58a6ff" stroke-width="0.7"/>
  <text x="385" y="612" text-anchor="middle" class="port">:19091 --> transmission-exporter</text>

  <rect x="502" y="596" width="222" height="24" rx="3" fill="#1c2128" stroke="#30363d"/>
  <text x="613" y="612" text-anchor="middle" class="t">Watchtower</text>

  <!-- STACK: media -->
  <rect x="35" y="656" width="350" height="82" rx="5" fill="none" stroke="#21262d" stroke-width="1"/>
  <text x="48" y="670" class="stack">media</text>

  <rect x="45" y="678" width="160" height="40" rx="3" fill="#1c2128" stroke="#30363d"/>
  <text x="125" y="698" text-anchor="middle" class="t">Jellyfin</text>
  <text x="125" y="712" text-anchor="middle" class="port">LAN :8096</text>

  <rect x="215" y="678" width="160" height="40" rx="3" fill="#1c2128" stroke="#30363d"/>
  <text x="295" y="698" text-anchor="middle" class="t">jellyfin-exporter</text>

  <!-- STACK: torrenting -->
  <rect x="395" y="656" width="350" height="82" rx="5" fill="none" stroke="#21262d" stroke-width="1"/>
  <text x="408" y="670" class="stack">torrenting</text>

  <!-- Mullvad VPN tunnel envelope around Gluetun+Transmission -->
  <rect x="402" y="675" width="240" height="56" rx="4" fill="#f0883e" fill-opacity="0.06" stroke="#f0883e" stroke-width="0.8" stroke-dasharray="4 2"/>
  <text x="640" y="685" fill="#f0883e" class="sub" font-size="8">Mullvad VPN</text>
  <text x="640" y="695" fill="#f0883e" class="sub" font-size="8">WireGuard tunnel</text>

  <rect x="408" y="681" width="110" height="44" rx="3" fill="#1c2128" stroke="#30363d"/>
  <text x="463" y="703" text-anchor="middle" class="t">Gluetun</text>
  <text x="463" y="717" text-anchor="middle" class="sub">kill switch</text>

  <rect x="525" y="681" width="110" height="44" rx="3" fill="#1c2128" stroke="#30363d"/>
  <text x="580" y="703" text-anchor="middle" class="t">Transmission</text>
  <text x="580" y="717" text-anchor="middle" class="port">:9091 · :51413</text>

  <rect x="645" y="706" width="92" height="26" rx="3" fill="#1c2128" stroke="#30363d"/>
  <text x="691" y="723" text-anchor="middle" class="t" font-size="9">tx-exporter</text>

  <!-- STACK: ai -->
  <rect x="35" y="748" width="350" height="56" rx="5" fill="none" stroke="#21262d" stroke-width="1"/>
  <text x="48" y="762" class="stack">ai</text>

  <rect x="45" y="770" width="100" height="26" rx="3" fill="#1c2128" stroke="#30363d"/>
  <text x="95" y="788" text-anchor="middle" class="t">Ollama</text>

  <rect x="155" y="770" width="100" height="26" rx="3" fill="#1c2128" stroke="#30363d"/>
  <text x="205" y="788" text-anchor="middle" class="t">Envoy</text>

  <rect x="265" y="770" width="110" height="26" rx="3" fill="#1c2128" stroke="#30363d"/>
  <text x="320" y="788" text-anchor="middle" class="t">PicoClaw</text>

  <!-- STACK: monitoring -->
  <rect x="395" y="748" width="350" height="56" rx="5" fill="none" stroke="#21262d" stroke-width="1"/>
  <text x="408" y="762" class="stack">monitoring</text>

  <rect x="405" y="770" width="100" height="26" rx="3" fill="#1c2128" stroke="#30363d"/>
  <text x="455" y="788" text-anchor="middle" class="t">node-exp.</text>

  <rect x="515" y="770" width="100" height="26" rx="3" fill="#1c2128" stroke="#30363d"/>
  <text x="565" y="788" text-anchor="middle" class="t">cAdvisor</text>

  <rect x="625" y="770" width="110" height="26" rx="3" fill="#1c2128" stroke="#30363d"/>
  <text x="680" y="788" text-anchor="middle" class="t" font-size="10">network-exp.*</text>

  <!-- Promtail in monitoring stack -->
  <rect x="35" y="814" width="350" height="42" rx="5" fill="none" stroke="#21262d" stroke-width="1"/>
  <text x="48" y="828" class="stack">logging (ships to juul)</text>

  <rect x="45" y="834" width="120" height="18" rx="3" fill="#1c2128" stroke="#30363d"/>
  <text x="105" y="847" text-anchor="middle" class="t" font-size="10">Promtail</text>

  <!-- footnote -->
  <text x="40" y="886" class="sub">* network-exporter uses host networking — scraped via host Tailscale IP</text>
  <text x="40" y="932" class="sub">Host Tailscale daemon (SSH, management, network-exporter scraping)</text>
</svg>
